<svg data-v-0dd9719b="" version="1.0" xmlns="http://www.w3.org/2000/svg" xmlns:xlink="http://www.w3.org/1999/xlink" width="100%" height="100%" viewBox="0 0 340.000000 250.000000" preserveAspectRatio="xMidYMid meet" color-interpolation-filters="sRGB" style="margin: auto;"> <rect data-v-0dd9719b="" x="0" y="0" width="100%" height="100%" fill="#fff" fill-opacity="1" class="background"></rect> <rect data-v-0dd9719b="" x="0" y="0" width="100%" height="100%" fill="url(#watermark)" fill-opacity="1" class="watermarklayer"></rect> <g data-v-0dd9719b="" fill="#f43a67" class="icon-text-wrapper icon-svg-group iconsvg" transform="translate(48.57000732421875,95.27083396911621)"><g class="iconsvg-imagesvg" transform="translate(0,0)"><g><rect fill="#f43a67" fill-opacity="0" stroke-width="2" x="0" y="0" width="60" height="59.45833457204864" class="image-rect"></rect> <svg x="0" y="0" width="60" height="59.45833457204864" filtersec="colorsb3824864630" class="image-svg-svg primary" style="overflow: visible;"><svg xmlns="http://www.w3.org/2000/svg" viewBox="0.002930724062025547 -0.028841903433203697 75.84599304199219 75.16104125976562"><title>资源 7</title><g id="图层_2" data-name="图层 2"><g id="Layer_1" data-name="Layer 1"><path d="M.84,38.43v0h0A9.26,9.26,0,0,0,2.71,48.82L26,72.07a9.24,9.24,0,0,0,4.14,2.39l1.35.26a10.14,10.14,0,0,0,1.23.07,9.32,9.32,0,0,0,6.48-2.72q7.34-7.35,14.66-14.74L66.33,44.88l0,0A2.37,2.37,0,0,0,67,43.2a1.51,1.51,0,0,0,0-.3,1.69,1.69,0,0,0-.12-.53,2.17,2.17,0,0,0-.64-1l-.14-.14L63.66,39,34.92,67.83a3.37,3.37,0,0,1-4.73,0L.84,38.43ZM39.38,74.29a9.25,9.25,0,0,0,10.39-1.86C54.86,67.33,59.89,62.22,65,57.12h-.08l7.54-7.46a9.35,9.35,0,0,0,2.4-4.15,11.66,11.66,0,0,0,.29-1.67v-1.6a9.27,9.27,0,0,0-2.69-5.78C64.93,29,57.5,21.48,50,14a9.22,9.22,0,0,0-4.14-2.4l-1-.22a9.3,9.3,0,0,0-8,2.62c-1.49,1.49-5.74,5.75-9.23,9.3a12.58,12.58,0,0,0-2,2.29,10.14,10.14,0,0,0-.37,10.55,10.37,10.37,0,0,0,6.28,4.93c4.65,1.29,8.62-1.78,11.37-1.16a4.3,4.3,0,0,1,3.29,5.43A3.65,3.65,0,0,1,45,47.14c-2.77,3-8.15,7.88-10.07,9.71a3.37,3.37,0,0,1-4.73,0L15,41.72,7.81,34.54a3.37,3.37,0,0,1,0-4.73L17.94,19.63q5-4.9,9.89-9.85c3-3,6-6,9-8.95A9.23,9.23,0,0,0,26.4,2.69C21.3,7.78,16.27,12.9,11.17,18h0L3.58,25.57a9.35,9.35,0,0,0-2.4,4.15l-.22,1a9.35,9.35,0,0,0,2.62,8L26,61.08a9.25,9.25,0,0,0,4.15,2.4l1.14.33a9.2,9.2,0,0,0,7.92-2.73L49.4,51c.11-.11.21-.23.31-.35a9.84,9.84,0,0,0,2.2-4,10.11,10.11,0,0,0-7.1-12.49,10.46,10.46,0,0,0-2.45-.37c-2.44-.08-7.36,2.12-9.44,1.38a4.55,4.55,0,0,1-3-3.93A3.56,3.56,0,0,1,31.23,28l10-9.92a3.3,3.3,0,0,1,4.59.14q10.88,10.83,21.7,21.72a9.21,9.21,0,0,1,1.13,1.33A3.35,3.35,0,0,1,68.48,45a7.42,7.42,0,0,1-.77.9L58.08,55.6l-1.51,1.52h0L39.38,74.29ZM64.33,25.88,75,36.69v0A9.28,9.28,0,0,0,73.18,26.3L49.93,3.05A9.27,9.27,0,0,0,45.79.65L44.43.39A10,10,0,0,0,43.2.33a9.32,9.32,0,0,0-6.47,2.72Q29.38,10.4,22.07,17.78L9.56,30.24a.08.08,0,0,0,0,0,2.35,2.35,0,0,0-.63,1.64c0,.1,0,.2,0,.3a1.76,1.76,0,0,0,.12.53,2.31,2.31,0,0,0,.65,1c.79.83,1.71,1.65,2.54,2.46L41,7.29a3.37,3.37,0,0,1,4.73,0c6.22,6.19,12.46,12.36,18.64,18.59Z" fill="#f43a67"></path></g></g></svg></svg> <!----></g></g> <g transform="translate(67,1.7979183197021484)"><g data-gra="path-name" fill-rule="" class="tp-name iconsvg-namesvg" transform="translate(0,0)"><g transform="scale(1)"><g><path d="M39.2-14.76L42.93-14.76 42.93-12.51Q42.93-12.24 42.73-12.04 42.52-11.83 42.25-11.83L42.25-11.83 39.15-11.83 38.97-4.86 41.98-4.86 41.98-2.61Q41.98-2.34 41.78-2.14 41.58-1.93 41.31-1.93L41.31-1.93 38.92-1.93 38.88-0.49Q38.88 4.23 34.16 4.23L34.16 4.23 24.57 4.23 24.57 1.3 32.35 1.3Q33.93 1.3 33.93-0.27L33.93-0.27 33.98-1.93 13.95-1.93 14.85-11.83 11.25-11.83 11.25-14.76 15.07-14.76 15.88-23.54Q14.35-22.5 12.55-21.69L12.55-21.69 12.55-24.61Q14.94-26.23 16.47-29.18 18-32.13 19.08-36.23L19.08-36.23 24.03-36.23Q23.45-33.8 22.63-31.95L22.63-31.95 41.76-31.95 41.76-29.7Q41.76-29.43 41.56-29.23 41.35-29.02 41.09-29.02L41.09-29.02 21.15-29.02Q19.62-26.5 17.28-24.57L17.28-24.57 39.42-24.57 39.2-14.76ZM9.22-26.19Q8.64-27.36 6.68-29.99 4.72-32.63 2.56-34.7L2.56-34.7 7.96-34.7Q10.39-32.13 13.05-26.19L13.05-26.19 9.22-26.19ZM8.73-16.34Q8.14-17.5 6.19-20.14 4.23-22.77 2.07-24.84L2.07-24.84 7.47-24.84Q9.9-22.27 12.55-16.34L12.55-16.34 8.73-16.34ZM20.65-21.64L20.02-14.76 34.24-14.76 34.42-21.64 20.65-21.64ZM27.13-21.06Q28.53-19.57 29.38-18.31 30.24-17.05 30.96-15.43L30.96-15.43 27.13-15.43Q26.23-17.19 22.18-21.06L22.18-21.06 27.13-21.06ZM6.61-12.29Q6.66-12.42 6.82-12.51 6.97-12.6 7.15-12.6L7.15-12.6 10.62-12.6 7.65 3.96 2.25 3.96 6.61-12.29ZM34.02-4.86L34.2-11.83 19.75-11.83 19.13-4.86 34.02-4.86ZM26.32-5.31Q25.43-7.06 21.38-10.93L21.38-10.93 26.32-10.93Q27.72-9.45 28.57-8.19 29.43-6.93 30.15-5.31L30.15-5.31 26.32-5.31ZM69.66-31.95L88.16-31.95 88.16-29.7Q88.16-29.43 87.95-29.23 87.75-29.02 87.48-29.02L87.48-29.02 69.66-29.02 69.66-25.15 85.28-25.15 85.28-0.67Q85.28 4.05 80.55 4.05L80.55 4.05 73.44 4.05 73.44 1.13 78.75 1.13Q80.32 1.13 80.32-0.45L80.32-0.45 80.32-22.23 54.67-22.23 54.67 3.46Q54.67 3.73 54.47 3.94 54.27 4.14 54 4.14L54 4.14 49.73 4.14 49.73-25.15 64.71-25.15 64.71-29.02 47.07-29.02 47.07-31.95 64.71-31.95 64.71-36.23 69.66-36.23 69.66-31.95ZM78.66-4.86L69.93-4.86 69.93 2.34Q69.93 2.61 69.73 2.81 69.53 3.01 69.25 3.01L69.25 3.01 64.98 3.01 64.98-4.86 55.58-4.86 55.58-7.79 64.98-7.79 64.98-12.11 55.89-12.11 55.89-15.03 61.88-15.03Q59.49-18.04 56.88-21.15L56.88-21.15 62.28-21.15Q64.03-18.63 65.97-15.03L65.97-15.03 69.48-15.03Q71.86-18.54 72.72-21.2L72.72-21.2 78.12-21.2Q76.32-18.18 73.58-15.03L73.58-15.03 79.06-15.03 79.06-12.78Q79.06-12.51 78.86-12.31 78.66-12.11 78.39-12.11L78.39-12.11 69.93-12.11 69.93-7.79 79.34-7.79 79.34-5.54Q79.34-5.26 79.13-5.06 78.93-4.86 78.66-4.86L78.66-4.86ZM115.02-17.01L132.12-17.01 132.12-14.76Q132.12-14.49 131.92-14.29 131.72-14.08 131.44-14.08L131.44-14.08 92.07-14.08 92.07-17.01 110.07-17.01 110.07-20.88 95.49-20.88 95.49-23.8 110.07-23.8 110.07-27.68 93.92-27.68 93.92-30.6 104.85-30.6Q101.92-33.88 99.36-36.23L99.36-36.23 105.66-36.23Q107.78-33.62 109.31-30.6L109.31-30.6 116.28-30.6Q118.44-33.75 119.3-36.23L119.3-36.23 125.59-36.23Q124.2-33.88 120.83-30.6L120.83-30.6 130.41-30.6 130.41-28.35Q130.41-28.08 130.21-27.88 130-27.68 129.74-27.68L129.74-27.68 115.02-27.68 115.02-23.8 128.79-23.8 128.79-21.55Q128.79-21.29 128.59-21.08 128.38-20.88 128.12-20.88L128.12-20.88 115.02-20.88 115.02-17.01ZM116.37-6.52Q118.03-4.14 120.94-2.36 123.84-0.58 126.83 0.43 129.82 1.44 132.03 1.75L132.03 1.75 132.03 4.68Q129.47 4.63 125.62 3.62 121.77 2.61 118.03 0.67 114.3-1.26 112.05-3.87L112.05-3.87Q109.8-1.26 106.06 0.67 102.33 2.61 98.48 3.62 94.64 4.63 92.07 4.68L92.07 4.68 92.07 1.75Q94.28 1.44 97.27 0.43 100.26-0.58 103.16-2.36 106.06-4.14 107.73-6.52L107.73-6.52 93.38-6.52 93.38-9.45 109.22-9.45Q109.58-10.75 109.58-12.06L109.58-12.06 109.58-12.87 114.53-12.87 114.53-12.06Q114.53-10.75 114.88-9.45L114.88-9.45 130.72-9.45 130.72-7.2Q130.72-6.93 130.52-6.73 130.32-6.52 130.05-6.52L130.05-6.52 116.37-6.52ZM172.62-22.99Q174.78-19.93 177.93-17.77L177.93-17.77 177.93-14.85Q175.91-15.71 174.38-16.74L174.38-16.74 174.38-11.21Q174.38-6.48 169.65-6.48L169.65-6.48 153.36-6.48 153.36-6.52 151.56-6.52 151.56-16.83 174.19-16.83Q171.05-18.9 168.57-22.18L168.57-22.18 168.57-20.25Q168.57-19.98 168.37-19.78 168.16-19.57 167.89-19.57L167.89-19.57 157.95-19.57 157.95-22.5 168.34-22.5Q164.61-27.58 162.36-35.68L162.36-35.68 167.31-35.68Q167.58-34.56 168.21-32.4L168.21-32.4Q168.84-33.3 169.69-34.92L169.69-34.92 175.14-34.92Q172.22-30.51 169.65-28.48L169.65-28.48Q170.1-27.36 170.73-26.14L170.73-26.14Q171.76-27.22 172.49-29.38L172.49-29.38 177.93-29.38Q175.23-24.61 172.62-22.99L172.62-22.99ZM149.67-11.47Q147.65-13 146.25-14.8L146.25-14.8 146.25 4Q146.25 4.27 146.05 4.48 145.84 4.68 145.57 4.68L145.57 4.68 141.3 4.68 141.3-11.74Q139.77-9.18 137.07-7.15L137.07-7.15 137.07-10.08Q138.01-11.34 138.56-12.96 139.09-14.58 139.41-17.05 139.72-19.53 140.09-24.25L140.09-24.25 137.52-24.25 137.52-27.18 141.3-27.18 141.3-35.64 146.25-35.64 146.25-27.18 150.25-27.18 150.25-24.93Q150.25-24.66 150.05-24.46 149.85-24.25 149.58-24.25L149.58-24.25 146.52-24.25Q147.15-20.29 147.85-18.09 148.54-15.88 149.67-14.4L149.67-14.4 149.67-11.47ZM154.26-29.38L156.06-27.13Q156.6-28.89 156.87-30.78L156.87-30.78 149.94-30.78 149.94-33.7 162-33.7 162-31.45Q162-31.36 161.91-31.18L161.91-31.18Q161.32-28.66 160.25-26.19 159.16-23.71 156.49-20.9 153.81-18.09 149.18-16.11L149.18-16.11 149.18-19.04Q152.32-21.29 154.08-23.54L154.08-23.54Q152.06-26.23 148.81-29.38L148.81-29.38 154.26-29.38ZM167.85-9.4Q169.43-9.4 169.43-10.98L169.43-10.98 169.43-13.9 156.51-13.9 156.51-9.4 167.85-9.4ZM172.03-5.94Q171.54-4.5 170.39-2.65 169.25-0.81 168.12 0.45L168.12 0.45 177.12 0.45 177.12 2.7Q177.12 2.97 176.92 3.17 176.72 3.38 176.44 3.38L176.44 3.38 148.5 3.38 148.5 0.45 164.12 0.45Q166.45-3.1 167.09-5.94L167.09-5.94 172.03-5.94ZM159.88 0L156.96 0Q155.88-0.9 154.96-2.34 154.03-3.78 152.91-5.94L152.91-5.94 157.86-5.94Q158.4-3.69 158.81-2.48 159.21-1.26 159.88 0L159.88 0Z" transform="translate(-2.069999933242798, 36.22999954223633)"></path></g> <!----> <!----> <!----> <!----> <!----> <!----> <!----></g></g> <g data-gra="path-slogan" fill-rule="" class="tp-slogan iconsvg-slogansvg" fill="#f43a67" transform="translate(32.38499069213867,46.90999984741211)"><!----> <!----> <g transform="scale(1, 1)"><g transform="scale(1)"><path d="M2.06-5.06L6.56-5.06L6.56-8.58L7.73-8.58L7.73 0L6.56 0L6.56-3.98L2.06-3.98L2.06 0L0.89 0L0.89-8.58L2.06-8.58L2.06-5.06ZM15.19 0L14.34-2.48L10.88-2.48L9.98 0L8.81 0L12.05-8.58L13.36-8.58L16.45 0L15.19 0ZM12.61-7.31L11.25-3.52L13.92-3.52L12.66-7.31L12.61-7.31ZM17.67-8.58L18.84-8.58L18.84 0L17.67 0L17.67-8.58ZM22.22-8.58L26.53-1.64L26.53-8.58L27.66-8.58L27.66 0L26.34 0L21.98-6.94L21.94-6.94L21.94 0L20.81 0L20.81-8.58L22.22-8.58ZM35.11 0L34.27-2.48L30.80-2.48L29.91 0L28.73 0L31.97-8.58L33.28-8.58L36.38 0L35.11 0ZM32.53-7.31L31.17-3.52L33.84-3.52L32.58-7.31L32.53-7.31ZM38.81-8.58L43.13-1.64L43.13-8.58L44.25-8.58L44.25 0L42.94 0L38.58-6.94L38.53-6.94L38.53 0L37.41 0L37.41-8.58L38.81-8.58ZM57.61-8.58L57.61 0L56.48 0L56.48-5.06Q56.48-5.77 56.48-7.22L56.48-7.22L54.05 0L52.88 0L50.48-7.22L50.44-7.22Q50.44-6.70 50.48-5.67L50.48-5.67Q50.48-5.16 50.48-5.06L50.48-5.06L50.48 0L49.31 0L49.31-8.58L51-8.58L53.48-1.31L55.92-8.58L57.61-8.58ZM60.61-1.03L65.77-1.03L65.77 0L59.44 0L59.44-8.58L65.67-8.58L65.67-7.59L60.61-7.59L60.61-4.92L65.30-4.92L65.30-3.89L60.61-3.89L60.61-1.03ZM67.45-8.58L68.63-8.58L68.63 0L67.45 0L67.45-8.58ZM77.77-6.05L77.77-6.05L76.64-6.05Q76.22-7.78 74.25-7.83L74.25-7.83Q71.53-7.69 71.44-4.36L71.44-4.36Q71.44-0.80 74.30-0.80L74.30-0.80Q76.27-0.84 76.73-3.19L76.73-3.19L77.86-3.19Q77.34 0.05 74.06 0.14L74.06 0.14Q70.31 0 70.22-4.31L70.22-4.31Q70.41-8.63 74.25-8.81L74.25-8.81Q77.30-8.72 77.77-6.05ZM80.39-5.06L84.89-5.06L84.89-8.58L86.06-8.58L86.06 0L84.89 0L84.89-3.98L80.39-3.98L80.39 0L79.22 0L79.22-8.58L80.39-8.58L80.39-5.06ZM89.16-1.03L94.31-1.03L94.31 0L87.98 0L87.98-8.58L94.22-8.58L94.22-7.59L89.16-7.59L89.16-4.92L93.84-4.92L93.84-3.89L89.16-3.89L89.16-1.03ZM97.22-8.58L101.53-1.64L101.53-8.58L102.66-8.58L102.66 0L101.34 0L96.98-6.94L96.94-6.94L96.94 0L95.81 0L95.81-8.58L97.22-8.58ZM110.86-3.61L108.23-3.61L108.23-4.59L111.98-4.59L111.98 0L111.23 0L110.95-1.08Q109.97 0.09 108.14 0.14L108.14 0.14Q106.41 0.14 105.47-0.75L105.47-0.75Q104.06-2.06 104.11-4.36L104.11-4.36Q104.44-8.63 108.19-8.81L108.19-8.81Q111.38-8.63 111.84-6L111.84-6L110.72-6Q110.25-7.78 108.14-7.83L108.14-7.83Q105.47-7.64 105.33-4.31L105.33-4.31Q105.33-0.75 108.19-0.75L108.19-0.75Q109.22-0.75 109.97-1.31L109.97-1.31Q110.91-2.06 110.86-3.61L110.86-3.61Z" transform="translate(-0.890625, 8.8125)"></path></g></g></g></g></g><defs v-gra="od"></defs></svg>